<svg xmlns="http://www.w3.org/2000/svg" viewBox="0 0 300 300"><path d="M150 40c-39.153 0-70.89 26.463-70.89 72.57 0 34.418 18.514 52.747 33.844 76.466h74.089c15.33-23.719 33.848-42.045 33.848-76.466C220.888 66.463 189.15 40 150 40zm35.756 128.817a688.253 688.253 0 00-5.392 7.753h-5.776l-2.178-46.041-2.175 46.04h-44.463l-2.01-42.546c1.361-1.186 2.67-2.415 3.972-3.647.843-.823 1.682-1.641 2.52-2.47.275.753.55 1.508.847 2.255l1.587 4.059c.512 1.362 1.104 2.685 1.654 4.028l1.68 4.019 1.22 2.916 2.367-2.243c2.27-2.156 4.563-4.285 6.817-6.46a360.315 360.315 0 005.313-5.294c1.608 1.27 3.217 2.548 4.871 3.761l3.274 2.451 3.334 2.385 1.145.823.646-1.022c.924-1.464 1.802-2.963 2.696-4.449.87-1.507 1.742-3.012 2.546-4.563-1.27 1.202-2.478 2.45-3.685 3.705-.865.921-1.726 1.85-2.58 2.783l-2.065-2.06-2.955-2.83c-1.958-1.906-4.002-3.705-6.008-5.548l-1.385-1.273-1.53 1.366a293.448 293.448 0 00-6.86 6.411c-1.519 1.472-3.015 2.964-4.515 4.452l-.54-1.071c-.665-1.293-1.283-2.601-1.984-3.874l-2.047-3.849c-.676-1.284-1.415-2.54-2.12-3.81l-1.05-1.898-1.156 1.605c-1.107 1.54-2.148 3.138-3.217 4.714a133.13 133.13 0 00-2.8 4.457l-.157-3.318-2.176 46.041h-1.79a726.134 726.134 0 00-5.39-7.752c-12.163-17.33-22.666-32.295-22.666-56.25 0-18.477 5.863-33.9 16.955-44.605 10.359-9.996 25.087-15.502 41.473-15.502 16.383 0 31.11 5.503 41.47 15.502 11.091 10.705 16.955 26.126 16.955 44.605-.003 23.95-10.509 38.915-22.672 56.244zM118.2 203.26c1.306 5.5 5.436 6.686 6.305 12.65.5 3.424-1.071 5.602-.496 10.91.245 2.257 4.59 8.071 4.781 9.93.521 5.033 0 8.764 0 8.764.131 4.654 7.903 7.082 10.967 8.252 2.592.995 5.212 6.234 10.067 6.234 4.94 0 7.741-5.245 10.418-6.234 3.08-1.134 9.833-3.966 10.871-8.462.456-1.965.216-3.497.717-8.357.216-2.107 4.346-7.671 4.722-10.29 1.123-7.775-1.494-7.14-.633-12.306.625-3.731 4.85-6.635 5.643-10.083.684-2.998 1.434-5.782 2.252-8.221h-67.637c.726 2.167 1.399 4.598 2.023 7.213z"/></svg>