<svg xmlns="http://www.w3.org/2000/svg" xmlns:xlink="http://www.w3.org/1999/xlink" class="iconLeft" viewBox="0 0 392 40"><defs><linearGradient gradientTransform="rotate(25)" id="a" x1="0" y1="0" x2="1" y2="0"><stop offset="0%" stop-color="#01648b"/><stop offset="100%" stop-color="#5bd0a4"/></linearGradient><linearGradient xlink:href="#a" id="b" x1="19.738" y1="45.001" x2="71.75" y2="45.001" gradientUnits="userSpaceOnUse"/><linearGradient xlink:href="#a" id="d" gradientUnits="userSpaceOnUse" x1="19.738" y1="45.001" x2="71.75" y2="45.001"/><filter id="c" color-interpolation-filters="sRGB"><feFlood flood-opacity=".498" flood-color="#000" result="flood"/><feComposite in="SourceGraphic" in2="flood" operator="in" result="composite1"/><feGaussianBlur in="composite1" stdDeviation=".5" result="blur"/><feOffset dx="1" dy="1" result="offset"/><feComposite in="SourceGraphic" in2="offset" result="composite2"/></filter></defs><path d="M64.24 30.922V9.264H58.28V19.93L46.844 8.938h-2.096v21.658h5.962v-10.48l11.435 10.806zM77.12 13.875c-4.518 0-8.896 3.61-8.896 8.617 0 4.984 4.378 8.593 8.896 8.593 4.541 0 8.92-3.61 8.92-8.593 0-5.007-4.379-8.617-8.92-8.617zm0 5.264c1.188 0 3.027.582 3.027 3.353 0 2.748-1.84 3.33-3.027 3.33-1.164 0-3.004-.582-3.004-3.33 0-2.771 1.84-3.353 3.004-3.353zm18.887-4.775V9.59H93.07c-.954 3.4-3.213 5.193-5.286 5.73v3.33h2.748v6.567c0 3.703 2.609 5.868 5.636 5.868 2.096 0 3.61-.838 4.309-1.77v-4.261c-.816.489-1.561.698-2.586.698-1.188 0-1.886-.978-1.886-2.538V18.65h4.262v-4.285zm23.894-.489c-3.96 0-7.336 3.098-7.336 8.57 0 5.892 3.377 8.64 7.01 8.64 2.329 0 4.052-1.397 4.844-3.19v2.701h5.472V14.364h-5.472v1.49c-1.048-1.14-2.841-1.979-4.518-1.979zm1.141 5.357c1.211 0 2.422.582 3.377 1.327v1.56c0 2.376-1.863 3.424-3.214 3.424-1.77 0-2.911-1.35-2.911-3.097 0-1.724 1.141-3.214 2.748-3.214zm45.901 11.364V8.938h-2.724l-8.478 8.92-8.476-8.92h-2.725v21.659h5.938V19.465l4.379 4.774h1.77l4.378-4.774v11.131zm12.902-16.72c-4.518 0-8.92 3.61-8.92 8.616 0 4.984 4.402 8.593 8.92 8.593s8.92-3.61 8.92-8.593c0-5.007-4.402-8.617-8.92-8.617zm0 5.263c1.188 0 3.027.582 3.027 3.353 0 2.748-1.84 3.33-3.027 3.33-1.188 0-3.027-.582-3.027-3.33 0-2.771 1.84-3.353 3.027-3.353zm31.579-5.264c-2.096 0-3.82 1.281-4.844 2.981-.954-1.956-2.701-2.98-4.89-2.98-2.166 0-3.098 1.187-4.1 2.584v-2.096h-5.495v16.233h5.496V20.79c.559-.861 1.164-1.56 2.165-1.56 1.095 0 2.05.582 2.05 2.19l.046 9.175h5.473v-9.897c.582-.838 1.211-1.467 2.166-1.467 1.118 0 2.073.582 2.073 2.189l.023 9.175h5.473V20.56c0-4.378-2.33-6.684-5.636-6.684zm25.314 8.221c0-5.007-3.283-8.22-7.87-8.22-4.891 0-8.618 4.028-8.618 8.849 0 5.17 4.332 8.36 8.943 8.36 2.422 0 4.239-.489 5.357-1.187v-4.681c-.885.512-2.585 1.094-5.03 1.094-1.84 0-3.377-.769-3.866-2.399h11.085zm-11.015-1.234c.443-1.653 1.56-2.446 3.005-2.446 1.42 0 2.817.909 2.817 2.446zm24.104-6.987c-2.166 0-3.563 1.188-4.588 2.585v-2.096h-5.473v16.233h5.473V20.79c.582-.861 1.374-1.56 2.561-1.56 1.095 0 2.166.582 2.166 2.19l.024 9.175h5.472V20.559c0-4.378-2.329-6.684-5.635-6.684zm16.232.49V9.59h-2.911c-.955 3.4-3.214 5.193-5.287 5.73v3.33h2.725v6.567c0 3.703 2.608 5.868 5.636 5.868 2.096 0 3.61-.838 4.308-1.77v-4.261c-.792.489-1.56.698-2.585.698-1.188 0-1.886-.978-1.886-2.538V18.65h4.285v-4.285zm24.778-5.567c-4.169 0-8.058 2.446-8.058 6.94 0 2.562.932 5.124 4.518 6.265l3.028.955c1.14.349 1.886.792 1.886 1.444 0 .885-1.025 1.21-2.492 1.21-2.375 0-4.797-1.094-6.846-2.63v5.774c1.886 1.328 4.518 2.33 7.08 2.33 4.936 0 8.849-2.935 8.849-7.01 0-2.05-1.188-4.309-4.262-5.473l-2.306-.862c-1.77-.675-3.19-1.048-3.19-2.096 0-1.001 1.187-1.374 2.585-1.374 2.422 0 4.052.909 5.869 1.98v-5.776c-1.49-1.025-4.169-1.677-6.66-1.677zm18.957 5.077c-4.542 0-8.92 3.61-8.92 8.617 0 4.984 4.379 8.593 8.92 8.593 4.518 0 8.896-3.61 8.896-8.593 0-5.007-4.378-8.617-8.896-8.617zm0 5.264c1.164 0 3.004.582 3.004 3.353 0 2.748-1.84 3.33-3.004 3.33-1.188 0-3.028-.582-3.028-3.33 0-2.771 1.84-3.353 3.028-3.353zm20.051-5.264c-4.518 0-8.92 3.61-8.92 8.617 0 4.984 4.402 8.593 8.92 8.593s8.92-3.61 8.92-8.593c0-5.007-4.402-8.617-8.92-8.617zm0 5.264c1.164 0 3.027.582 3.027 3.353 0 2.748-1.863 3.33-3.027 3.33-1.188 0-3.027-.582-3.027-3.33 0-2.771 1.84-3.353 3.027-3.353zm22.31-5.264c-2.165 0-3.563 1.188-4.587 2.585v-2.096h-5.473v16.233h5.473V20.79c.582-.861 1.374-1.56 2.561-1.56 1.118 0 2.166.582 2.166 2.19l.023 9.175h5.473V20.559c0-4.378-2.329-6.684-5.636-6.684zm25.315 8.221c0-5.007-3.284-8.22-7.871-8.22-4.891 0-8.617 4.028-8.617 8.849 0 5.17 4.332 8.36 8.942 8.36 2.422 0 4.239-.489 5.357-1.187v-4.681c-.885.512-2.586 1.094-5.03 1.094-1.84 0-3.377-.769-3.867-2.399h11.086zm-11.016-1.234c.443-1.653 1.56-2.446 3.005-2.446 1.42 0 2.817.909 2.817 2.446zm23.685-6.824c-2.027 0-3.144 1.49-4.17 3.214v-2.888h-5.472v16.233h5.473v-8.338c.745-1.444 1.886-2.422 3.377-2.422 1.118 0 1.84.28 2.655.768v-6.078a3.827 3.827 0 00-1.863-.488z" fill="#10312f"/><g transform="matrix(.41423 0 0 .41423 -6.02 1.302)" fill="url(#b)" filter="url(#c)"><path d="M45.744 4.648c-14.363 0-26.006 9.708-26.006 26.622 0 12.626 6.792 19.35 12.416 28.051h27.179C64.957 50.62 71.75 43.897 71.75 31.27 71.749 14.356 60.106 4.648 45.744 4.648zm13.117 47.256c-.651.926-1.315 1.873-1.978 2.844h-2.119l-.799-16.89-.798 16.89H36.856l-.737-15.608c.499-.435.979-.886 1.457-1.338.309-.302.617-.602.924-.906.101.276.202.553.311.827l.582 1.489c.188.5.405.985.607 1.478l.616 1.474.448 1.07.868-.823c.833-.791 1.674-1.572 2.501-2.37a132.18 132.18 0 001.949-1.942c.59.466 1.18.935 1.787 1.38l1.201.899 1.223.875.42.302.237-.375c.339-.537.661-1.087.989-1.632.319-.553.639-1.105.934-1.674-.466.441-.909.899-1.352 1.359-.317.338-.633.679-.946 1.021l-.758-.756-1.084-1.038c-.718-.699-1.468-1.359-2.204-2.035l-.508-.467-.561.501a107.65 107.65 0 00-2.517 2.352c-.557.54-1.106 1.087-1.656 1.633l-.198-.393c-.244-.474-.471-.954-.728-1.421l-.751-1.412c-.248-.471-.519-.932-.778-1.398l-.385-.696-.424.589c-.406.565-.788 1.151-1.18 1.729-.35.539-.697 1.08-1.027 1.635l-.058-1.217-.798 16.89h-.657a266.379 266.379 0 00-1.977-2.844c-4.462-6.357-8.315-11.847-8.315-20.635 0-6.778 2.151-12.436 6.22-16.363 3.8-3.667 9.203-5.687 15.214-5.687 6.01 0 11.413 2.019 15.213 5.687 4.069 3.927 6.22 9.584 6.22 16.363-.001 8.786-3.855 14.276-8.317 20.633zM34.078 64.539c.479 2.018 1.994 2.453 2.313 4.641.183 1.256-.393 2.055-.182 4.002.09.828 1.684 2.961 1.754 3.643.191 1.846 0 3.215 0 3.215.048 1.707 2.899 2.598 4.023 3.027.951.365 1.912 2.287 3.693 2.287 1.812 0 2.84-1.924 3.822-2.287 1.13-.416 3.607-1.455 3.988-3.104.167-.721.079-1.283.263-3.066.079-.773 1.594-2.814 1.732-3.775.412-2.852-.548-2.619-.232-4.514.229-1.369 1.779-2.434 2.07-3.699.251-1.1.526-2.121.826-3.016H33.336c.266.795.513 1.687.742 2.646z" fill="url(#d)"/></g></svg>