<svg xmlns="http://www.w3.org/2000/svg" xmlns:xlink="http://www.w3.org/1999/xlink" class="iconLeft" viewBox="0 0 1055.327 108"><defs><linearGradient gradientTransform="rotate(25)" id="a" x1="0" y1="0" x2="1" y2="0"><stop offset="0%" stop-color="#01648b"/><stop offset="100%" stop-color="#5bd0a4"/></linearGradient><linearGradient xlink:href="#a" id="b" x1="19.738" y1="45.001" x2="71.75" y2="45.001" gradientUnits="userSpaceOnUse"/><linearGradient xlink:href="#a" id="d" gradientUnits="userSpaceOnUse" x1="19.738" y1="45.001" x2="71.75" y2="45.001"/><filter id="c" color-interpolation-filters="sRGB"><feFlood flood-opacity=".498" flood-color="#000" result="flood"/><feComposite in="SourceGraphic" in2="flood" operator="in" result="composite1"/><feGaussianBlur in="composite1" stdDeviation=".5" result="blur"/><feOffset dx="1" dy="1" result="offset"/><feComposite in="SourceGraphic" in2="offset" result="composite2"/></filter></defs><path d="M172.944 83.561V25.254h-16.05v28.715L126.11 24.376h-5.642v58.307h16.05V54.47l30.784 29.091zm34.671-45.893c-12.163 0-23.95 9.718-23.95 23.197 0 13.417 11.787 23.135 23.95 23.135 12.226 0 24.013-9.718 24.013-23.135 0-13.48-11.787-23.197-24.013-23.197zm0 14.169c3.198 0 8.15 1.567 8.15 9.028 0 7.398-4.952 8.966-8.15 8.966-3.135 0-8.088-1.568-8.088-8.966 0-7.46 4.953-9.028 8.088-9.028zm50.846-12.853V26.132h-7.9c-2.57 9.153-8.651 13.98-14.231 15.423v8.965h7.398V68.2c0 9.97 7.022 15.8 15.172 15.8 5.643 0 9.718-2.257 11.6-4.765V67.762c-2.195 1.316-4.202 1.88-6.96 1.88-3.198 0-5.079-2.633-5.079-6.833V50.52h11.474V38.984zm64.326-1.316c-10.658 0-19.749 8.338-19.749 23.072 0 15.862 9.091 23.26 18.872 23.26 6.27 0 10.909-3.762 13.04-8.59v7.273h14.734V38.984H334.95v4.013c-2.82-3.072-7.648-5.33-12.163-5.33zm3.073 14.42c3.26 0 6.52 1.567 9.09 3.573v4.201c0 6.395-5.015 9.216-8.652 9.216-4.764 0-7.837-3.636-7.837-8.338 0-4.64 3.073-8.652 7.399-8.652zm123.573 30.595V24.376h-7.335L419.276 48.39l-22.82-24.013h-7.336v58.307h15.987V52.715l11.787 12.852h4.765l11.787-12.852v29.968zm34.734-45.015c-12.163 0-24.013 9.718-24.013 23.197 0 13.417 11.85 23.135 24.013 23.135 12.163 0 24.012-9.718 24.012-23.135 0-13.48-11.85-23.197-24.012-23.197zm0 14.169c3.197 0 8.15 1.567 8.15 9.028 0 7.398-4.953 8.966-8.15 8.966-3.198 0-8.15-1.568-8.15-8.966 0-7.46 4.952-9.028 8.15-9.028zm85.015-14.17c-5.642 0-10.282 3.449-13.04 8.026-2.57-5.267-7.273-8.025-13.166-8.025-5.831 0-8.339 3.197-11.035 6.959v-5.643h-14.796v43.7h14.796V56.287c1.505-2.32 3.135-4.2 5.83-4.2 2.948 0 5.518 1.567 5.518 5.893l.125 24.702h14.734V56.038c1.567-2.257 3.26-3.95 5.83-3.95 3.01 0 5.58 1.567 5.58 5.893l.063 24.702h14.734V55.661c0-11.786-6.27-17.993-15.173-17.993zm68.15 22.132c0-13.48-8.84-22.131-21.19-22.131-13.166 0-23.198 10.846-23.198 23.824C592.944 75.411 604.606 84 617.02 84c6.52 0 11.411-1.317 14.42-3.197V68.2c-2.382 1.379-6.959 2.946-13.542 2.946-4.953 0-9.09-2.069-10.407-6.457h29.843zm-29.654-3.323c1.191-4.45 4.2-6.583 8.088-6.583 3.824 0 7.586 2.446 7.586 6.583zm64.89-18.808c-5.83 0-9.592 3.197-12.351 6.959v-5.643h-14.734v43.7h14.734V56.287c1.567-2.32 3.699-4.2 6.896-4.2 2.947 0 5.831 1.567 5.831 5.893l.063 24.702h14.733V55.661c0-11.786-6.27-17.993-15.172-17.993zm43.7 1.316V26.132h-7.838c-2.57 9.153-8.652 13.98-14.232 15.423v8.965h7.336V68.2c0 9.97 7.022 15.8 15.172 15.8 5.643 0 9.718-2.257 11.599-4.765V67.762c-2.132 1.316-4.2 1.88-6.96 1.88-3.197 0-5.078-2.633-5.078-6.833V50.52h11.536V38.984zM782.975 24c-11.223 0-21.693 6.583-21.693 18.683 0 6.897 2.508 13.793 12.163 16.866l8.15 2.57c3.072.94 5.079 2.132 5.079 3.887 0 2.383-2.759 3.26-6.709 3.26-6.395 0-12.915-2.946-18.432-7.084V77.73c5.078 3.574 12.163 6.27 19.06 6.27 13.29 0 23.824-7.9 23.824-18.871 0-5.518-3.198-11.6-11.474-14.734l-6.207-2.32c-4.765-1.818-8.589-2.821-8.589-5.642 0-2.696 3.197-3.7 6.96-3.7 6.52 0 10.908 2.446 15.799 5.33V28.514C796.894 25.755 789.684 24 782.976 24zm51.034 13.668c-12.226 0-24.012 9.718-24.012 23.197C809.998 74.282 821.784 84 834.01 84c12.163 0 23.95-9.718 23.95-23.135 0-13.48-11.787-23.197-23.95-23.197zm0 14.169c3.135 0 8.088 1.567 8.088 9.028 0 7.398-4.953 8.966-8.088 8.966-3.197 0-8.15-1.568-8.15-8.966 0-7.46 4.953-9.028 8.15-9.028zm53.981-14.17c-12.163 0-24.012 9.719-24.012 23.198 0 13.417 11.85 23.135 24.012 23.135 12.163 0 24.013-9.718 24.013-23.135 0-13.48-11.85-23.197-24.013-23.197zm0 14.17c3.135 0 8.15 1.567 8.15 9.028 0 7.398-5.015 8.966-8.15 8.966-3.197 0-8.15-1.568-8.15-8.966 0-7.46 4.953-9.028 8.15-9.028zm60.063-14.17c-5.83 0-9.593 3.198-12.351 6.96v-5.643h-14.734v43.7h14.734V56.287c1.567-2.32 3.699-4.2 6.896-4.2 3.01 0 5.831 1.567 5.831 5.893l.063 24.702h14.733V55.661c0-11.786-6.27-17.993-15.172-17.993zm68.15 22.132c0-13.48-8.84-22.131-21.19-22.131-13.167 0-23.198 10.846-23.198 23.824C971.816 75.411 983.477 84 995.89 84c6.52 0 11.41-1.317 14.42-3.197V68.2c-2.382 1.379-6.96 2.946-13.542 2.946-4.953 0-9.091-2.069-10.408-6.457h29.843zm-29.655-3.323c1.191-4.45 4.2-6.583 8.088-6.583 3.824 0 7.586 2.446 7.586 6.583zm63.762-18.37c-5.455 0-8.464 4.013-11.223 8.653v-7.775h-14.733v43.7h14.733V60.237c2.007-3.887 5.079-6.52 9.091-6.52 3.01 0 4.953.752 7.148 2.069V39.423c-1.505-.815-3.135-1.316-5.016-1.316z" fill="#10312f"/><g transform="matrix(1.11516 0 0 1.11516 -16.21 3.817)" fill="url(#b)" filter="url(#c)"><path d="M45.744 4.648c-14.363 0-26.006 9.708-26.006 26.622 0 12.626 6.792 19.35 12.416 28.051h27.179C64.957 50.62 71.75 43.897 71.75 31.27 71.749 14.356 60.106 4.648 45.744 4.648zm13.117 47.256c-.651.926-1.315 1.873-1.978 2.844h-2.119l-.799-16.89-.798 16.89H36.856l-.737-15.608c.499-.435.979-.886 1.457-1.338.309-.302.617-.602.924-.906.101.276.202.553.311.827l.582 1.489c.188.5.405.985.607 1.478l.616 1.474.448 1.07.868-.823c.833-.791 1.674-1.572 2.501-2.37a132.18 132.18 0 001.949-1.942c.59.466 1.18.935 1.787 1.38l1.201.899 1.223.875.42.302.237-.375c.339-.537.661-1.087.989-1.632.319-.553.639-1.105.934-1.674-.466.441-.909.899-1.352 1.359-.317.338-.633.679-.946 1.021l-.758-.756-1.084-1.038c-.718-.699-1.468-1.359-2.204-2.035l-.508-.467-.561.501a107.65 107.65 0 00-2.517 2.352c-.557.54-1.106 1.087-1.656 1.633l-.198-.393c-.244-.474-.471-.954-.728-1.421l-.751-1.412c-.248-.471-.519-.932-.778-1.398l-.385-.696-.424.589c-.406.565-.788 1.151-1.18 1.729-.35.539-.697 1.08-1.027 1.635l-.058-1.217-.798 16.89h-.657a266.379 266.379 0 00-1.977-2.844c-4.462-6.357-8.315-11.847-8.315-20.635 0-6.778 2.151-12.436 6.22-16.363 3.8-3.667 9.203-5.687 15.214-5.687 6.01 0 11.413 2.019 15.213 5.687 4.069 3.927 6.22 9.584 6.22 16.363-.001 8.786-3.855 14.276-8.317 20.633zM34.078 64.539c.479 2.018 1.994 2.453 2.313 4.641.183 1.256-.393 2.055-.182 4.002.09.828 1.684 2.961 1.754 3.643.191 1.846 0 3.215 0 3.215.048 1.707 2.899 2.598 4.023 3.027.951.365 1.912 2.287 3.693 2.287 1.812 0 2.84-1.924 3.822-2.287 1.13-.416 3.607-1.455 3.988-3.104.167-.721.079-1.283.263-3.066.079-.773 1.594-2.814 1.732-3.775.412-2.852-.548-2.619-.232-4.514.229-1.369 1.779-2.434 2.07-3.699.251-1.1.526-2.121.826-3.016H33.336c.266.795.513 1.687.742 2.646z" fill="url(#d)"/></g></svg>