<svg xmlns="http://www.w3.org/2000/svg" viewBox="0 0 90.324 23.64"><g aria-label="Not a Moment Sooner" style="line-height:1.25;-inkscape-font-specification:'Jost*'" font-weight="400" font-size="8.467" font-family="Jost*" letter-spacing="0" word-spacing="0" fill="#efefef" stroke-width=".265"><path d="M10.224 9.046h.72v6.223L6.457 10.56v4.411h-.72V8.75l4.487 4.708zM12.603 13.025c0 .271.051.517.17.72.118.211.27.38.474.5.203.118.432.177.686.177.254 0 .474-.06.677-.178.203-.118.356-.288.474-.5.119-.202.178-.448.178-.719 0-.27-.06-.508-.178-.72a1.283 1.283 0 00-.474-.5 1.305 1.305 0 00-.677-.177c-.254 0-.483.06-.686.178a1.283 1.283 0 00-.474.5c-.119.211-.17.448-.17.72zm-.685 0c0-.39.084-.745.262-1.05.178-.305.423-.542.728-.72.305-.169.644-.262 1.025-.262.38 0 .72.093 1.024.263.305.177.542.414.72.72.178.304.27.66.27 1.05 0 .389-.092.744-.27 1.049-.178.305-.415.55-.72.72a1.985 1.985 0 01-1.024.262c-.381 0-.72-.085-1.025-.262a1.917 1.917 0 01-.728-.72 2.057 2.057 0 01-.262-1.05zM16.921 9.723h.678v1.355h.635v.635h-.635v3.26h-.678v-3.26h-.635v-.635h.635zM21.756 11.992l-.33-.516a3.33 3.33 0 01.592-.322 2.33 2.33 0 01.898-.16c.44 0 .804.11 1.083.312.271.204.415.5.415.872v2.794h-.677v-.558a1.142 1.142 0 01-.533.482c-.237.11-.508.161-.796.161-.246 0-.466-.042-.67-.135a1.083 1.083 0 01-.49-.398c-.119-.178-.178-.398-.178-.67 0-.406.144-.727.44-.956.297-.228.703-.347 1.22-.347.228 0 .423.034.592.085.17.059.305.127.415.194v-.652a.482.482 0 00-.254-.44 1.074 1.074 0 00-.567-.152c-.28 0-.517.05-.72.152a3.269 3.269 0 00-.44.254zm0 1.837c0 .212.076.373.237.475.16.101.355.152.584.152.339 0 .61-.076.83-.229.22-.152.33-.414.33-.779v-.152a2.003 2.003 0 00-.457-.17c-.161-.033-.33-.059-.517-.059-.347 0-.6.068-.762.204-.169.135-.245.321-.245.558zM28.96 10.968l-.44 4.004h-.719l.72-6.223 2.37 4.293 2.371-4.293.72 6.223h-.72l-.44-4.004-1.93 3.454zM35.302 13.025c0 .271.051.517.17.72.118.211.27.38.474.5.203.118.432.177.686.177.254 0 .474-.06.677-.178.203-.118.356-.288.474-.5.119-.202.178-.448.178-.719 0-.27-.06-.508-.178-.72a1.283 1.283 0 00-.474-.5 1.305 1.305 0 00-.677-.177c-.254 0-.483.06-.686.178a1.283 1.283 0 00-.474.5c-.119.211-.17.448-.17.72zm-.685 0c0-.39.084-.745.262-1.05.178-.305.423-.542.728-.72.305-.169.644-.262 1.025-.262.38 0 .72.093 1.024.263.305.177.542.414.72.72.178.304.27.66.27 1.05 0 .389-.092.744-.27 1.049-.178.305-.415.55-.72.72a1.985 1.985 0 01-1.024.262c-.381 0-.72-.085-1.025-.262a1.917 1.917 0 01-.728-.72 2.057 2.057 0 01-.262-1.05zM44.912 12.517v2.455h-.677v-2.37c0-.322-.06-.559-.17-.728-.11-.161-.304-.246-.575-.246-.297 0-.525.093-.678.28a1.055 1.055 0 00-.228.694v2.37h-.678v-2.37c0-.322-.059-.559-.169-.728-.11-.161-.305-.246-.576-.246-.296 0-.525.093-.677.28a1.055 1.055 0 00-.229.694v2.37h-.677v-3.894h.677v.567c.11-.195.254-.356.44-.474.178-.119.39-.178.636-.178.558 0 .94.246 1.126.728.118-.22.288-.398.5-.533.202-.127.44-.195.702-.195.398 0 .703.136.923.39.22.254.33.635.33 1.134zM46.538 13.194c.025.398.152.703.372.915.22.212.508.313.864.313.28 0 .516-.06.72-.195.203-.127.364-.296.499-.508l.55.348a3.4 3.4 0 01-.431.524c-.161.153-.356.263-.576.348-.229.084-.508.118-.847.118a1.72 1.72 0 01-.948-.262 1.81 1.81 0 01-.66-.72 2.23 2.23 0 01-.238-1.05c0-.068 0-.144.008-.212 0-.067.008-.135.026-.203.05-.321.17-.6.338-.846.17-.237.381-.432.652-.568a1.98 1.98 0 01.906-.203c.364 0 .686.085.966.246.27.169.49.398.643.694.152.296.229.652.229 1.058v.102c0 .034-.008.068-.008.101zm.017-.575h2.32a1.28 1.28 0 00-.322-.745c-.187-.187-.44-.288-.78-.288-.312 0-.583.093-.82.28-.238.185-.365.44-.398.753zM53.04 12.602c0-.644-.28-.974-.83-.974-.296 0-.533.093-.72.28a.931.931 0 00-.27.694v2.37h-.678v-3.894h.678v.618c.118-.212.27-.381.474-.508a1.27 1.27 0 01.686-.195c.398 0 .72.136.965.39s.372.635.372 1.134v2.455h-.677zM55.03 9.723h.677v1.355h.635v.635h-.635v3.26h-.677v-3.26h-.635v-.635h.635zM59.873 13.059c.177.406.39.728.635.965.237.237.542.356.914.356.339 0 .593-.085.762-.254.17-.17.254-.407.254-.703a.965.965 0 00-.212-.626 1.707 1.707 0 00-.525-.407 8.88 8.88 0 00-.651-.28 5.065 5.065 0 01-.483-.186 2.387 2.387 0 01-.483-.296 1.448 1.448 0 01-.38-.457c-.102-.186-.145-.415-.145-.686a1.443 1.443 0 01.805-1.33c.254-.126.559-.194.914-.194.322 0 .593.06.83.178s.432.27.601.457c.16.195.296.407.398.635l-.584.39a3.207 3.207 0 00-.314-.466 1.377 1.377 0 00-.431-.364 1.162 1.162 0 00-.576-.144c-.296 0-.517.076-.669.229-.152.152-.22.364-.22.618 0 .194.06.355.195.49.127.136.296.246.508.348.203.101.431.203.669.288.152.059.313.135.49.22.17.093.34.203.492.338.152.136.27.297.372.492.093.194.144.423.144.694 0 .338-.076.635-.228.889a1.511 1.511 0 01-.627.592c-.27.144-.584.212-.948.212-.491 0-.915-.144-1.287-.449a2.737 2.737 0 01-.83-1.185zM64.546 13.025c0 .271.051.517.17.72.118.211.27.38.474.5.203.118.432.177.686.177.254 0 .474-.06.677-.178.203-.118.355-.288.474-.5.119-.202.178-.448.178-.719 0-.27-.06-.508-.178-.72a1.283 1.283 0 00-.474-.5 1.305 1.305 0 00-.677-.177c-.254 0-.483.06-.686.178a1.283 1.283 0 00-.474.5c-.119.211-.17.448-.17.72zm-.686 0c0-.39.085-.745.263-1.05.178-.305.423-.542.728-.72.305-.169.644-.262 1.025-.262.38 0 .72.093 1.024.263.305.177.542.414.72.72.177.304.27.66.27 1.05 0 .389-.093.744-.27 1.049-.178.305-.415.55-.72.72a1.985 1.985 0 01-1.024.262c-.381 0-.72-.085-1.025-.262a1.917 1.917 0 01-.728-.72 2.057 2.057 0 01-.263-1.05zM69.169 13.025c0 .271.05.517.17.72.118.211.27.38.474.5.203.118.431.177.685.177.254 0 .474-.06.678-.178.203-.118.355-.288.474-.5.118-.202.178-.448.178-.719 0-.27-.06-.508-.178-.72a1.283 1.283 0 00-.474-.5 1.305 1.305 0 00-.678-.177c-.254 0-.482.06-.685.178a1.283 1.283 0 00-.475.5c-.118.211-.169.448-.169.72zm-.686 0c0-.39.085-.745.263-1.05.178-.305.423-.542.728-.72.305-.169.643-.262 1.024-.262s.72.093 1.025.263c.305.177.542.414.72.72.177.304.27.66.27 1.05 0 .389-.093.744-.27 1.049-.178.305-.415.55-.72.72a1.985 1.985 0 01-1.025.262c-.38 0-.72-.085-1.024-.262a1.917 1.917 0 01-.728-.72 2.057 2.057 0 01-.263-1.05zM75.942 12.602c0-.644-.279-.974-.83-.974-.296 0-.533.093-.719.28a.931.931 0 00-.271.694v2.37h-.677v-3.894h.677v.618c.119-.212.271-.381.474-.508a1.27 1.27 0 01.686-.195c.398 0 .72.136.965.39.246.254.373.635.373 1.134v2.455h-.678zM78.245 13.194c.026.398.153.703.373.915.22.212.508.313.863.313.28 0 .517-.06.72-.195.203-.127.364-.296.5-.508l.55.348c-.136.203-.28.372-.432.524-.16.153-.355.263-.576.348-.228.084-.508.118-.846.118a1.72 1.72 0 01-.949-.262 1.81 1.81 0 01-.66-.72 2.23 2.23 0 01-.237-1.05c0-.068 0-.144.008-.212 0-.067.008-.135.025-.203.051-.321.17-.6.34-.846.168-.237.38-.432.651-.568a1.98 1.98 0 01.906-.203c.364 0 .686.085.965.246.271.169.491.398.644.694.152.296.228.652.228 1.058v.102c0 .034-.008.068-.008.101zm.017-.575h2.32a1.28 1.28 0 00-.322-.745c-.186-.187-.44-.288-.779-.288-.313 0-.584.093-.82.28-.238.185-.365.44-.399.753zM84.104 11.823a1.637 1.637 0 00-.245-.144.686.686 0 00-.28-.05c-.254 0-.432.092-.516.279-.093.186-.136.414-.136.694v2.37h-.677v-3.894h.677v.449c.11-.161.237-.288.381-.39a.801.801 0 01.44-.144c.136 0 .272.026.39.06.119.033.237.11.339.211z"/></g><path d="M.662.661h89v22.317h-89z" fill="none" stroke="#fff" stroke-width="1.323"/></svg>